<?xml version="1.0" encoding="UTF-8"?><svg id="Capa_1" xmlns="http://www.w3.org/2000/svg" xmlns:xlink="http://www.w3.org/1999/xlink" viewBox="0 0 180 44"><defs><linearGradient id="Degradado_sin_nombre_23" x1="18.88" y1="8.99" x2="14.15" y2="21.2" gradientTransform="translate(2.95 7.76) rotate(.32)" gradientUnits="userSpaceOnUse"><stop offset="0" stop-color="#663d11"/><stop offset="1" stop-color="#edc382"/></linearGradient><linearGradient id="Degradado_sin_nombre_17" x1="10.29" y1="18.94" x2="17.58" y2="24.98" gradientTransform="translate(2.95 7.76) rotate(.32)" gradientUnits="userSpaceOnUse"><stop offset="0" stop-color="#142536"/><stop offset="1" stop-color="#3d87aa"/></linearGradient><linearGradient id="Degradado_sin_nombre_39" x1="20.71" y1="7.07" x2="6.76" y2="37.18" gradientTransform="translate(2.95 7.76) rotate(.32)" gradientUnits="userSpaceOnUse"><stop offset="0" stop-color="#1b3450"/><stop offset="1" stop-color="#2e6ea1"/></linearGradient><linearGradient id="Degradado_sin_nombre_17-2" x1="4.51" y1="24.44" x2="24.65" y2="24.44" xlink:href="#Degradado_sin_nombre_17"/><linearGradient id="Degradado_sin_nombre_17-3" x1="19.7" y1="10.19" x2="11.58" y2="34.54" xlink:href="#Degradado_sin_nombre_17"/><linearGradient id="Degradado_sin_nombre_46" x1="10.56" y1="10.58" x2="23.99" y2="10.58" gradientTransform="translate(2.95 7.76) rotate(.32)" gradientUnits="userSpaceOnUse"><stop offset="0" stop-color="#6f3c0f"/><stop offset=".54" stop-color="#eec784"/><stop offset="1" stop-color="#6f3c0f"/></linearGradient><linearGradient id="Degradado_sin_nombre_23-2" x1="29.77" y1="32.86" x2="19.64" y2="4.74" xlink:href="#Degradado_sin_nombre_23"/><linearGradient id="Degradado_sin_nombre_23-3" x1="14.18" y1="6.43" x2="18.95" y2="24.15" xlink:href="#Degradado_sin_nombre_23"/><linearGradient id="Degradado_sin_nombre_46-2" x1="25.05" y1="23.76" x2="35.01" y2="23.76" xlink:href="#Degradado_sin_nombre_46"/><linearGradient id="Degradado_sin_nombre_46-3" x1="18.6" y1="24.15" x2="32.74" y2="24.15" xlink:href="#Degradado_sin_nombre_46"/><linearGradient id="Degradado_sin_nombre_46-4" x1="18.6" y1="30.54" x2="44.36" y2="30.54" xlink:href="#Degradado_sin_nombre_46"/><linearGradient id="Degradado_sin_nombre_23-4" x1="29.87" y1="32.03" x2="36.7" y2="31.14" xlink:href="#Degradado_sin_nombre_23"/><linearGradient id="Degradado_sin_nombre_23-5" x1="33.48" y1="11.58" x2="32.24" y2="1.17" xlink:href="#Degradado_sin_nombre_23"/><linearGradient id="Degradado_sin_nombre_17-4" x1="4.51" y1="24.44" x2="24.65" y2="24.44" xlink:href="#Degradado_sin_nombre_17"/><linearGradient id="Degradado_sin_nombre_17-5" x1="19.7" y1="10.19" x2="11.58" y2="34.54" xlink:href="#Degradado_sin_nombre_17"/><linearGradient id="Degradado_sin_nombre_59" x1="10.56" y1="10.58" x2="23.99" y2="10.58" gradientTransform="translate(2.95 7.76) rotate(.32)" gradientUnits="userSpaceOnUse"><stop offset="0" stop-color="#9d7413"/><stop offset=".47" stop-color="#ffe0ab"/><stop offset="1" stop-color="#c9a34e"/></linearGradient><linearGradient id="Degradado_sin_nombre_59-2" x1="29.77" y1="32.86" x2="19.64" y2="4.74" xlink:href="#Degradado_sin_nombre_59"/><linearGradient id="Degradado_sin_nombre_59-3" x1="28.65" y1="15.72" x2="43.52" y2="10.85" xlink:href="#Degradado_sin_nombre_59"/><linearGradient id="Degradado_sin_nombre_59-4" x1="14.18" y1="6.43" x2="18.95" y2="24.15" xlink:href="#Degradado_sin_nombre_59"/><linearGradient id="Degradado_sin_nombre_59-5" x1="31.48" y1="21.65" x2="28.58" y2="25.87" xlink:href="#Degradado_sin_nombre_59"/><linearGradient id="Degradado_sin_nombre_59-6" x1="18.6" y1="24.15" x2="32.74" y2="24.15" xlink:href="#Degradado_sin_nombre_59"/><linearGradient id="Degradado_sin_nombre_59-7" x1="18.68" y1="30.49" x2="44.36" y2="30.49" xlink:href="#Degradado_sin_nombre_59"/><linearGradient id="Degradado_sin_nombre_59-8" x1="29.87" y1="32.03" x2="36.7" y2="31.14" xlink:href="#Degradado_sin_nombre_59"/><linearGradient id="Degradado_sin_nombre_59-9" x1="33.48" y1="11.58" x2="32.24" y2="1.17" xlink:href="#Degradado_sin_nombre_59"/><linearGradient id="Degradado_sin_nombre_59-10" x1="70.64" y1="20.99" x2="129.88" y2="14.2" gradientTransform="matrix(1,0,0,1,0,0)" xlink:href="#Degradado_sin_nombre_59"/><linearGradient id="Degradado_sin_nombre_59-11" x1="70.99" y1="24.01" x2="130.23" y2="17.22" gradientTransform="matrix(1,0,0,1,0,0)" xlink:href="#Degradado_sin_nombre_59"/><linearGradient id="Degradado_sin_nombre_59-12" x1="71.14" y1="25.31" x2="130.38" y2="18.52" gradientTransform="matrix(1,0,0,1,0,0)" xlink:href="#Degradado_sin_nombre_59"/><linearGradient id="Degradado_sin_nombre_59-13" x1="71.27" y1="26.5" x2="130.51" y2="19.71" gradientTransform="matrix(1,0,0,1,0,0)" xlink:href="#Degradado_sin_nombre_59"/><linearGradient id="Degradado_sin_nombre_59-14" x1="71.42" y1="27.76" x2="130.66" y2="20.97" gradientTransform="matrix(1,0,0,1,0,0)" xlink:href="#Degradado_sin_nombre_59"/><linearGradient id="Degradado_sin_nombre_59-15" x1="71.52" y1="28.64" x2="130.76" y2="21.85" gradientTransform="matrix(1,0,0,1,0,0)" xlink:href="#Degradado_sin_nombre_59"/><linearGradient id="Degradado_sin_nombre_59-16" x1="71.69" y1="30.16" x2="130.93" y2="23.37" gradientTransform="matrix(1,0,0,1,0,0)" xlink:href="#Degradado_sin_nombre_59"/><linearGradient id="Degradado_sin_nombre_59-17" x1="71.9" y1="31.94" x2="131.14" y2="25.15" gradientTransform="matrix(1,0,0,1,0,0)" xlink:href="#Degradado_sin_nombre_59"/><linearGradient id="Degradado_sin_nombre_59-18" x1="72.04" y1="33.22" x2="131.28" y2="26.43" gradientTransform="matrix(1,0,0,1,0,0)" xlink:href="#Degradado_sin_nombre_59"/><linearGradient id="Degradado_sin_nombre_59-19" x1="72.01" y1="32.96" x2="131.25" y2="26.17" gradientTransform="matrix(1,0,0,1,0,0)" xlink:href="#Degradado_sin_nombre_59"/></defs><polyline points="37.45 2.49 34.26 2.56 31.77 4.88 30.65 1.49" fill="none" stroke="#185284" stroke-linecap="round" stroke-linejoin="round" stroke-width=".04"/><polygon points="24.92 5.36 27.07 .3 27.07 .3 31.77 4.88 24.92 5.36" fill="none" stroke="#185284" stroke-linecap="round" stroke-linejoin="round" stroke-width=".04"/><line x1="24.92" y1="5.36" x2="22.34" y2="1.06" fill="none" stroke="#185284" stroke-linecap="round" stroke-linejoin="round" stroke-width=".04"/><polyline points="16.25 5.78 24.92 5.36 14.25 9.1" fill="none" stroke="#185284" stroke-linecap="round" stroke-linejoin="round" stroke-width=".04"/><polyline points="24.92 5.36 19.73 9.35 14.24 9.09" fill="none" stroke="#185284" stroke-linecap="round" stroke-linejoin="round" stroke-width=".04"/><line x1="24.92" y1="5.36" x2="23.56" y2="12.23" fill="none" stroke="#185284" stroke-linecap="round" stroke-linejoin="round" stroke-width=".04"/><polyline points="31.12 16.04 24.91 5.36 32.13 10.81" fill="none" stroke="#185284" stroke-linecap="round" stroke-linejoin="round" stroke-width=".04"/><line x1="31.77" y1="4.88" x2="32.13" y2="10.81" fill="none" stroke="#185284" stroke-linecap="round" stroke-linejoin="round" stroke-width=".04"/><line x1="31.77" y1="4.88" x2="37.83" y2="6.56" fill="none" stroke="#185284" stroke-linecap="round" stroke-linejoin="round" stroke-width=".04"/><line x1="37.83" y1="6.56" x2="32.13" y2="10.81" fill="none" stroke="#185284" stroke-linecap="round" stroke-linejoin="round" stroke-width=".04"/><polyline points="37.82 6.56 36.39 11.35 39.71 15.05" fill="none" stroke="#185284" stroke-linecap="round" stroke-linejoin="round" stroke-width=".04"/><line x1="37.82" y1="6.56" x2="39.72" y2="15.05" fill="none" stroke="#185284" stroke-linecap="round" stroke-linejoin="round" stroke-width=".04"/><path d="M37.82,6.56s4.39,4.3,4.41,4.3" fill="none" stroke="#185284" stroke-linecap="round" stroke-linejoin="round" stroke-width=".04"/><line x1="41.74" y1="8.53" x2="42.23" y2="10.86" fill="none" stroke="#185284" stroke-linecap="round" stroke-linejoin="round" stroke-width=".04"/><line x1="42.23" y1="10.86" x2="44.78" y2="10.01" fill="none" stroke="#185284" stroke-linecap="round" stroke-linejoin="round" stroke-width=".04"/><line x1="42.23" y1="10.86" x2="44.17" y2="13.91" fill="none" stroke="#185284" stroke-linecap="round" stroke-linejoin="round" stroke-width=".04"/><line x1="39.7" y1="15.07" x2="44.17" y2="13.91" fill="none" stroke="#185284" stroke-linecap="round" stroke-linejoin="round" stroke-width=".04"/><line x1="42.23" y1="10.86" x2="39.72" y2="15.05" fill="none" stroke="#185284" stroke-linecap="round" stroke-linejoin="round" stroke-width=".04"/><line x1="39.71" y1="15.05" x2="32.13" y2="10.81" fill="none" stroke="#185284" stroke-linecap="round" stroke-linejoin="round" stroke-width=".04"/><line x1="32.14" y1="10.79" x2="36.39" y2="11.35" fill="none" stroke="#185284" stroke-linecap="round" stroke-linejoin="round" stroke-width=".04"/><line x1="39.71" y1="15.05" x2="31.12" y2="16.04" fill="none" stroke="#185284" stroke-linecap="round" stroke-linejoin="round" stroke-width=".04"/><line x1="32.13" y1="10.81" x2="31.12" y2="16.04" fill="none" stroke="#185284" stroke-linecap="round" stroke-linejoin="round" stroke-width=".04"/><line x1="32.13" y1="10.81" x2="36.75" y2="20.9" fill="none" stroke="#185284" stroke-linecap="round" stroke-linejoin="round" stroke-width=".04"/><line x1="32.13" y1="10.81" x2="23.56" y2="12.22" fill="none" stroke="#185284" stroke-linecap="round" stroke-linejoin="round" stroke-width=".04"/><line x1="23.56" y1="12.22" x2="19.73" y2="9.35" fill="none" stroke="#185284" stroke-linecap="round" stroke-linejoin="round" stroke-width=".04"/><line x1="23.56" y1="12.22" x2="15.98" y2="15.77" fill="none" stroke="#185284" stroke-linecap="round" stroke-linejoin="round" stroke-width=".04"/><line x1="19.73" y1="9.35" x2="15.98" y2="15.77" fill="none" stroke="#185284" stroke-linecap="round" stroke-linejoin="round" stroke-width=".04"/><line x1="19.73" y1="9.34" x2="23.66" y2="16.8" fill="none" stroke="#185284" stroke-linecap="round" stroke-linejoin="round" stroke-width=".04"/><line x1="23.56" y1="12.22" x2="23.66" y2="16.8" fill="none" stroke="#185284" stroke-linecap="round" stroke-linejoin="round" stroke-width=".04"/><line x1="23.56" y1="12.22" x2="29.95" y2="18.37" fill="none" stroke="#185284" stroke-linecap="round" stroke-linejoin="round" stroke-width=".04"/><line x1="23.65" y1="16.81" x2="28.32" y2="11.39" fill="none" stroke="#185284" stroke-linecap="round" stroke-linejoin="round" stroke-width=".04"/><line x1="31.12" y1="16.04" x2="23.65" y2="16.78" fill="none" stroke="#185284" stroke-linecap="round" stroke-linejoin="round" stroke-width=".04"/><line x1="23.66" y1="16.8" x2="29.95" y2="18.37" fill="none" stroke="#185284" stroke-linecap="round" stroke-linejoin="round" stroke-width=".04"/><line x1="29.95" y1="18.37" x2="24.9" y2="22.44" fill="none" stroke="#185284" stroke-linecap="round" stroke-linejoin="round" stroke-width=".04"/><line x1="29.94" y1="18.38" x2="29.99" y2="22.98" fill="none" stroke="#185284" stroke-linecap="round" stroke-linejoin="round" stroke-width=".04"/><line x1="34.36" y1="19.76" x2="29.94" y2="18.38" fill="none" stroke="#185284" stroke-linecap="round" stroke-linejoin="round" stroke-width=".04"/><line x1="31.12" y1="16.02" x2="34.36" y2="19.76" fill="none" stroke="#185284" stroke-linecap="round" stroke-linejoin="round" stroke-width=".04"/><line x1="34.36" y1="19.76" x2="39.72" y2="15.05" fill="none" stroke="#185284" stroke-linecap="round" stroke-linejoin="round" stroke-width=".04"/><line x1="39.72" y1="15.05" x2="41.39" y2="24.77" fill="none" stroke="#185284" stroke-linecap="round" stroke-linejoin="round" stroke-width=".04"/><line x1="39.72" y1="15.03" x2="42.73" y2="18.69" fill="none" stroke="#185284" stroke-linecap="round" stroke-linejoin="round" stroke-width=".04"/><line x1="42.73" y1="18.69" x2="45.3" y2="16.36" fill="none" stroke="#185284" stroke-linecap="round" stroke-linejoin="round" stroke-width=".04"/><line x1="42.73" y1="18.69" x2="47.17" y2="21.27" fill="none" stroke="#185284" stroke-linecap="round" stroke-linejoin="round" stroke-width=".04"/><line x1="42.73" y1="18.69" x2="41.39" y2="24.77" fill="none" stroke="#185284" stroke-linecap="round" stroke-linejoin="round" stroke-width=".04"/><line x1="41.38" y1="24.77" x2="46.13" y2="25.49" fill="none" stroke="#185284" stroke-linecap="round" stroke-linejoin="round" stroke-width=".04"/><line x1="42.73" y1="18.69" x2="36.75" y2="20.9" fill="none" stroke="#185284" stroke-linecap="round" stroke-linejoin="round" stroke-width=".04"/><line x1="36.75" y1="20.9" x2="41.38" y2="24.77" fill="none" stroke="#185284" stroke-linecap="round" stroke-linejoin="round" stroke-width=".04"/><line x1="41.38" y1="24.77" x2="42.77" y2="28.93" fill="none" stroke="#185284" stroke-linecap="round" stroke-linejoin="round" stroke-width=".04"/><line x1="41.38" y1="24.77" x2="37.04" y2="30.14" fill="none" stroke="#185284" stroke-linecap="round" stroke-linejoin="round" stroke-width=".04"/><line x1="41.39" y1="24.77" x2="34.93" y2="25.07" fill="none" stroke="#185284" stroke-linecap="round" stroke-linejoin="round" stroke-width=".04"/><line x1="36.75" y1="20.9" x2="35.05" y2="25.03" fill="none" stroke="#185284" stroke-linecap="round" stroke-linejoin="round" stroke-width=".04"/><line x1="36.75" y1="20.9" x2="29.99" y2="22.98" fill="none" stroke="#185284" stroke-linecap="round" stroke-linejoin="round" stroke-width=".04"/><line x1="34.36" y1="19.76" x2="29.99" y2="22.98" fill="none" stroke="#185284" stroke-linecap="round" stroke-linejoin="round" stroke-width=".04"/><line x1="16.25" y1="5.78" x2="18.52" y2="3.62" fill="none" stroke="#185284" stroke-linecap="round" stroke-linejoin="round" stroke-width=".04"/><line x1="16.25" y1="5.78" x2="13.92" y2="4.01" fill="none" stroke="#185284" stroke-linecap="round" stroke-linejoin="round" stroke-width=".04"/><line x1="16.26" y1="5.76" x2="14.25" y2="9.1" fill="none" stroke="#185284" stroke-linecap="round" stroke-linejoin="round" stroke-width=".04"/><line x1="14.26" y1="9.09" x2="8.2" y2="6.88" fill="none" stroke="#185284" stroke-linecap="round" stroke-linejoin="round" stroke-width=".04"/><line x1="14.25" y1="9.1" x2="10.45" y2="12.68" fill="none" stroke="#185284" stroke-linecap="round" stroke-linejoin="round" stroke-width=".04"/><line x1="10.45" y1="12.68" x2="7.31" y2="12.37" fill="none" stroke="#185284" stroke-linecap="round" stroke-linejoin="round" stroke-width=".04"/><line x1="10.45" y1="12.68" x2="15.98" y2="15.77" fill="none" stroke="#185284" stroke-linecap="round" stroke-linejoin="round" stroke-width=".04"/><line x1="10.45" y1="12.68" x2="9.83" y2="19.35" fill="none" stroke="#185284" stroke-linecap="round" stroke-linejoin="round" stroke-width=".04"/><line x1="9.83" y1="19.35" x2="7.27" y2="16.41" fill="none" stroke="#185284" stroke-linecap="round" stroke-linejoin="round" stroke-width=".04"/><line x1="9.83" y1="19.35" x2="15.98" y2="15.77" fill="none" stroke="#185284" stroke-linecap="round" stroke-linejoin="round" stroke-width=".04"/><line x1="15.98" y1="15.77" x2="23.66" y2="16.8" fill="none" stroke="#185284" stroke-linecap="round" stroke-linejoin="round" stroke-width=".04"/><polyline points="15.98 15.77 19.09 18.02 23.66 16.8" fill="none" stroke="#185284" stroke-linecap="round" stroke-linejoin="round" stroke-width=".04"/><line x1="24.9" y1="22.44" x2="23.65" y2="16.78" fill="none" stroke="#185284" stroke-linecap="round" stroke-linejoin="round" stroke-width=".04"/><line x1="24.9" y1="22.42" x2="19.36" y2="17.97" fill="none" stroke="#185284" stroke-linecap="round" stroke-linejoin="round" stroke-width=".04"/><line x1="19.34" y1="22.84" x2="19.09" y2="18.02" fill="none" stroke="#185284" stroke-linecap="round" stroke-linejoin="round" stroke-width=".04"/><line x1="24.9" y1="22.42" x2="19.35" y2="22.84" fill="none" stroke="#185284" stroke-linecap="round" stroke-linejoin="round" stroke-width=".04"/><line x1="19.34" y1="22.84" x2="9.83" y2="19.35" fill="none" stroke="#185284" stroke-linecap="round" stroke-linejoin="round" stroke-width=".04"/><line x1="9.83" y1="19.35" x2="11.73" y2="23.4" fill="none" stroke="#185284" stroke-linecap="round" stroke-linejoin="round" stroke-width=".04"/><line x1="11.73" y1="23.4" x2="19.34" y2="22.84" fill="none" stroke="#185284" stroke-linecap="round" stroke-linejoin="round" stroke-width=".04"/><line x1="19.34" y1="22.84" x2="12.24" y2="27.13" fill="none" stroke="#185284" stroke-linecap="round" stroke-linejoin="round" stroke-width=".04"/><line x1="11.73" y1="23.4" x2="7.08" y2="25.74" fill="none" stroke="#185284" stroke-linecap="round" stroke-linejoin="round" stroke-width=".04"/><line x1="9.83" y1="19.35" x2="7.1" y2="25.72" fill="none" stroke="#185284" stroke-linecap="round" stroke-linejoin="round" stroke-width=".04"/><line x1="12.24" y1="27.13" x2="14.46" y2="29.38" fill="none" stroke="#185284" stroke-linecap="round" stroke-linejoin="round" stroke-width=".04"/><line x1="12.24" y1="27.13" x2="7.08" y2="25.74" fill="none" stroke="#185284" stroke-linecap="round" stroke-linejoin="round" stroke-width=".04"/><ellipse cx="31.77" cy="4.88" rx=".47" ry=".45" fill="#185083"/><ellipse cx="37.45" cy="2.44" rx=".51" ry=".49" fill="#185083"/><ellipse cx="30.65" cy="1.49" rx=".29" ry=".28" fill="#185083"/><ellipse cx="27.07" cy=".3" rx=".28" ry=".27" fill="#185083"/><ellipse cx="24.91" cy="5.36" rx=".55" ry=".54" fill="#185083"/><ellipse cx="22.34" cy="1.06" rx=".47" ry=".45" fill="#185083"/><ellipse cx="37.82" cy="6.56" rx=".54" ry=".53" fill="#185083"/><ellipse cx="32.13" cy="10.81" rx=".56" ry=".54" fill="#185083"/><ellipse cx="41.74" cy="8.53" rx=".27" ry=".26" fill="#185083"/><ellipse cx="42.23" cy="10.86" rx=".5" ry=".49" fill="#185083"/><ellipse cx="44.78" cy="10.01" rx=".26" ry=".25" fill="#185083"/><ellipse cx="44.17" cy="13.91" rx=".26" ry=".26" fill="#185083"/><ellipse cx="45.3" cy="16.36" rx=".26" ry=".25" fill="#185083"/><ellipse cx="42.73" cy="18.69" rx=".51" ry=".49" fill="#185083"/><ellipse cx="39.72" cy="15.05" rx=".56" ry=".55" fill="#185083"/><ellipse cx="31.12" cy="16.04" rx=".51" ry=".5" fill="#185083"/><ellipse cx="29.95" cy="18.37" rx=".58" ry=".56" fill="#185083"/><ellipse cx="34.36" cy="19.76" rx=".51" ry=".49" fill="#185083"/><ellipse cx="36.75" cy="20.9" rx=".45" ry=".44" fill="#185083"/><ellipse cx="41.38" cy="24.77" rx=".51" ry=".49" fill="#185083"/><ellipse cx="47.17" cy="21.27" rx=".49" ry=".48" fill="#185083"/><ellipse cx="46.16" cy="25.49" rx=".25" ry=".24" fill="#185083"/><ellipse cx="42.77" cy="28.93" rx=".28" ry=".27" fill="#185083"/><ellipse cx="23.56" cy="12.22" rx=".52" ry=".51" fill="#185083"/><ellipse cx="19.73" cy="9.35" rx=".25" ry=".25" fill="#185083"/><ellipse cx="23.65" cy="16.81" rx=".51" ry=".5" fill="#185083"/><ellipse cx="18.52" cy="3.63" rx=".3" ry=".3" fill="#185083"/><ellipse cx="16.25" cy="5.78" rx=".49" ry=".48" fill="#185083"/><ellipse cx="13.92" cy="4.01" rx=".26" ry=".25" fill="#185083"/><ellipse cx="14.25" cy="9.1" rx=".45" ry=".44" fill="#185083"/><ellipse cx="8.2" cy="6.88" rx=".51" ry=".49" fill="#185083"/><ellipse cx="7.24" cy="12.34" rx=".27" ry=".26" fill="#185083"/><ellipse cx="10.45" cy="12.68" rx=".29" ry=".28" fill="#185083"/><ellipse cx="15.98" cy="15.77" rx=".53" ry=".52" fill="#185083"/><ellipse cx="7.22" cy="16.31" rx=".27" ry=".27" fill="#185083"/><ellipse cx="9.83" cy="19.35" rx=".55" ry=".53" fill="#185083"/><ellipse cx="11.73" cy="23.4" rx=".48" ry=".47" fill="#185083"/><ellipse cx="19.34" cy="22.84" rx=".53" ry=".51" fill="#185083"/><ellipse cx="24.9" cy="22.42" rx=".53" ry=".51" fill="#185083"/><ellipse cx="12.24" cy="27.13" rx=".5" ry=".48" fill="#185083"/><ellipse cx="7.08" cy="25.74" rx=".51" ry=".49" fill="#185083"/><polygon points="13.38 31.82 14.96 28.82 20.13 21.28 25.28 13.85 25.35 14.15 16.41 27.47 14.34 30.61 13.38 31.82" fill="url(#Degradado_sin_nombre_23)"/><polygon points="35.16 32.99 27.51 23.32 27.53 21.13 35.16 32.99" fill="#0c1624"/><path d="M27.53,21.13l-13.65,18.35s-.55.72-1.24,1-5.37,2.95-5.37,2.95c0,0,4.22-7.98,4.68-8.89s13.41-19.15,13.41-19.15l9.8,17.59-7.63-11.86Z" fill="url(#Degradado_sin_nombre_17)"/><path d="M25.36,15.4s.57,1.79-.96,3.96c-1.53,2.17-9.31,13.89-9.31,13.89l-6.32,9.34-1.51.85,4.68-8.89,13.41-19.15Z" fill="url(#Degradado_sin_nombre_39)"/><path d="M7.26,43.44l4.68-8.89,10.96-15.64s1.27-.59-3.24,5.97c-4.51,6.56-12.4,18.56-12.4,18.56Z" fill="#0c1624"/><path d="M27.53,21.13v1.28s-13.54,17.66-13.54,17.66l-6.72,3.38,5.19-3.01s1.51-1.05,2.14-1.92c1.15-1.59,12.93-17.38,12.93-17.38Z" fill="url(#Degradado_sin_nombre_17-2)"/><path d="M27.52,22.41v.91s-6.82,8.48-11.53,15.98l-8.72,4.14,6.69-3.54,13.57-17.5Z" fill="url(#Degradado_sin_nombre_17-3)"/><polygon points="13.38 31.82 26.96 5.05 26.95 6.93 13.38 31.82" fill="url(#Degradado_sin_nombre_46)"/><polygon points="14.89 29.04 26.95 6.93 47.11 43.87 26.24 31.11 27.88 28.99 37.8 36.02 25.74 12.41 14.89 29.04" fill="url(#Degradado_sin_nombre_23-2)"/><polygon points="16.66 26.33 25.74 12.41 37.23 34.9 35.03 32.82 25.36 15.4 25.35 14 16.66 26.33" fill="#663d11"/><path d="M13.38,31.82l11.98-17.81v1.39s-5.81,8.73-11.98,16.42Z" fill="url(#Degradado_sin_nombre_23-3)"/><polygon points="37.8 36.02 27.88 28.99 27.89 27.37 35.03 32.82 37.23 34.9 37.8 36.02" fill="url(#Degradado_sin_nombre_46-2)"/><path d="M27.89,27.37l-6.5,9.34s1.36-1.27,5.58-3.41c0,0,.71-.44,1.78,0s6.77,3.48,6.77,3.48l-9.28-5.68,1.64-2.12v-1.63Z" fill="url(#Degradado_sin_nombre_46-3)"/><path d="M21.39,36.71s2.88-2.18,5.58-3.41c0,0,.73-.4,1.78,0l6.77,3.48,11.58,7.08s-13.01-7.56-18.57-9.74c0,0-.92-.42-1.9-.01s-5.25,2.59-5.25,2.59Z" fill="url(#Degradado_sin_nombre_46-4)"/><path d="M28.21,34.81l4.25,1.1s7.37,3.73,14.64,7.96c0,0-13.62-6.92-18.9-9.06Z" fill="url(#Degradado_sin_nombre_23-4)"/><path d="M26.96,5.05s12.66,23.09,20.15,38.82L26.95,6.93v-1.87Z" fill="url(#Degradado_sin_nombre_23-5)"/><polygon points="13.38 31.82 14.96 28.82 20.13 21.28 25.28 13.85 25.35 14.15 16.41 27.47 14.34 30.61 13.38 31.82" fill="url(#Degradado_sin_nombre_23)"/><polygon points="35.16 32.99 27.51 23.32 27.53 21.13 35.16 32.99" fill="#0c1624"/><path d="M27.53,21.13l-13.65,18.35s-.55.72-1.24,1-5.37,2.95-5.37,2.95c0,0,4.22-7.98,4.68-8.89s13.41-19.15,13.41-19.15l9.8,17.59-7.63-11.86Z" fill="url(#Degradado_sin_nombre_17)"/><path d="M25.36,15.4s.57,1.79-.96,3.96c-1.53,2.17-9.31,13.89-9.31,13.89l-6.32,9.34-1.51.85,4.68-8.89,13.41-19.15Z" fill="url(#Degradado_sin_nombre_39)"/><path d="M7.26,43.44l4.68-8.89,10.96-15.64s1.27-.59-3.24,5.97c-4.51,6.56-12.4,18.56-12.4,18.56Z" fill="#0c1624"/><path d="M27.53,21.13v1.28s-13.54,17.66-13.54,17.66l-6.72,3.38,5.19-3.01s1.51-1.05,2.14-1.92c1.15-1.59,12.93-17.38,12.93-17.38Z" fill="url(#Degradado_sin_nombre_17-4)"/><path d="M27.52,22.41v.91s-6.82,8.48-11.53,15.98l-8.72,4.14,6.69-3.54,13.57-17.5Z" fill="url(#Degradado_sin_nombre_17-5)"/><polygon points="13.38 31.82 26.96 5.05 26.95 6.93 13.38 31.82" fill="url(#Degradado_sin_nombre_59)"/><polygon points="14.89 29.04 26.95 6.93 47.11 43.87 26.24 31.11 27.88 28.99 37.8 36.02 25.74 12.41 14.89 29.04" fill="url(#Degradado_sin_nombre_59-2)"/><polygon points="16.66 26.33 25.74 12.41 37.23 34.9 35.03 32.82 25.36 15.4 25.35 14 16.66 26.33" fill="url(#Degradado_sin_nombre_59-3)"/><path d="M13.38,31.82l11.98-17.81v1.39s-5.81,8.73-11.98,16.42Z" fill="url(#Degradado_sin_nombre_59-4)"/><polygon points="37.8 36.02 27.88 28.99 27.89 27.37 35.03 32.82 37.23 34.9 37.8 36.02" fill="url(#Degradado_sin_nombre_59-5)"/><path d="M27.89,27.37l-6.5,9.34s1.36-1.27,5.58-3.41c0,0,.71-.44,1.78,0s6.77,3.48,6.77,3.48l-9.28-5.68,1.64-2.12v-1.63Z" fill="url(#Degradado_sin_nombre_59-6)"/><path d="M21.47,36.51s2.88-2.18,5.58-3.41c0,0,.73-.4,1.78,0l6.77,3.48,11.51,7.38s-12.94-7.86-18.49-10.04c0,0-.92-.42-1.9-.01s-5.25,2.59-5.25,2.59Z" fill="url(#Degradado_sin_nombre_59-7)"/><path d="M28.21,34.81l4.25,1.1s7.37,3.73,14.64,7.96c0,0-13.62-6.92-18.9-9.06Z" fill="url(#Degradado_sin_nombre_59-8)"/><path d="M26.96,5.05s12.66,23.09,20.15,38.82L26.95,6.93v-1.87Z" fill="url(#Degradado_sin_nombre_59-9)"/><path d="M60.88,24.73h-4.92l-.97,2.85c-.08.24-.13.45-.13.61,0,.5.52.74,1.57.74v.21h-3.66v-.21c1.02,0,1.7-.48,2.02-1.43l3.51-10.46-.18-.55c-.34-.95-1.02-1.43-2.02-1.43v-.21h4.18c.62,0,1.1.52,1.45,1.55l3.72,11.09c.32.95,1,1.43,2.03,1.43v.21h-6.92v-.21c.94,0,1.4-.24,1.4-.71,0-.16-.04-.37-.13-.63l-.96-2.86ZM60.81,24.52l-2.39-7.16-2.42,7.16h4.81Z" fill="url(#Degradado_sin_nombre_59-10)" stroke="#422918" stroke-linecap="round" stroke-linejoin="round" stroke-width=".16"/><path d="M76.46,28.93c1.67,0,2.57-.98,2.7-2.94h.22v3.15h-11.03v-.21c1.07,0,1.65-.37,1.73-1.12v-7.91c0-.98-.59-1.47-1.76-1.47v-.21h6.95v.21c-1.15,0-1.73.49-1.73,1.47v9.03h2.92Z" fill="url(#Degradado_sin_nombre_59-11)" stroke="#422918" stroke-linecap="round" stroke-linejoin="round" stroke-width=".16"/><path d="M89.15,18.32h.22l.19,2.97h-.22c-.06-.53-.3-1.09-.72-1.7-.25-.36-.66-.66-1.2-.9s-1.2-.36-1.95-.36c-.68,0-1.22.17-1.61.51s-.6.71-.6,1.08c0,.48.17.83.5,1.07.3.23.71.46,1.21.71l3.25,1.46c1.35.71,2.03,1.61,2.03,2.74,0,2.23-1.73,3.34-5.19,3.34-.54,0-1.05-.07-1.54-.21-.66-.19-1.25-.5-1.77-.91-.18-.14-.36-.21-.54-.21-.36,0-.54.39-.54,1.18h-.22l.08-3.23h.22c0,.21.08.48.24.8.45.92,1.13,1.58,2.04,1.97.6.27,1.28.4,2.02.4,1.47,0,2.21-.53,2.21-1.6,0-.76-.44-1.35-1.3-1.79l-3.05-1.34c-.75-.33-1.33-.74-1.72-1.24-.37-.47-.55-1.02-.55-1.64,0-1.03.45-1.85,1.33-2.44.88-.59,2.04-.88,3.5-.88.69,0,1.29.09,1.79.28.46.18.88.26,1.26.26s.59-.11.63-.33Z" fill="url(#Degradado_sin_nombre_59-12)" stroke="#422918" stroke-linecap="round" stroke-linejoin="round" stroke-width=".16"/><path d="M101.08,26.7v2.44h-2.55l-5.91-9.24v7.56c0,.98.58,1.47,1.73,1.47v.21h-3.68v-.21c1.15,0,1.73-.49,1.73-1.47v-7.56c0-.98-.58-1.47-1.73-1.47v-.21h4.91l5.27,8.18v-6.49c0-.99-.58-1.48-1.73-1.48v-.21h3.68v.21c-1.15,0-1.73.49-1.73,1.47v6.8h0Z" fill="url(#Degradado_sin_nombre_59-13)" stroke="#422918" stroke-linecap="round" stroke-linejoin="round" stroke-width=".16"/><path d="M103.56,18.22h6.92v.21c-1.15,0-1.73.49-1.73,1.47v7.56c0,.98.58,1.47,1.73,1.47v.21h-6.92v-.21c1.15,0,1.73-.49,1.73-1.47v-7.56c0-.98-.58-1.47-1.73-1.47v-.21Z" fill="url(#Degradado_sin_nombre_59-14)" stroke="#422918" stroke-linecap="round" stroke-linejoin="round" stroke-width=".16"/><path d="M111.36,18.22h6.92c1.81,0,3.21.34,4.23,1.04,1.22.83,1.83,1.89,1.83,3.16s-.61,2.26-1.83,2.95c-.97.55-2.39.83-4.23.83h-1.73v1.26c0,.98.58,1.47,1.73,1.47v.21h-6.92v-.21c1.15,0,1.73-.49,1.73-1.47v-7.75c-.04-.86-.62-1.29-1.73-1.29v-.2ZM116.55,18.43v7.56h1.73c1.73,0,2.6-1.19,2.6-3.57,0-2.66-.87-3.99-2.6-3.99h-1.73Z" fill="url(#Degradado_sin_nombre_59-15)" stroke="#422918" stroke-linecap="round" stroke-linejoin="round" stroke-width=".16"/><path d="M124.78,18.22h6.92c1.81,0,3.21.34,4.23,1.04,1.22.83,1.83,1.89,1.83,3.16s-.61,2.26-1.83,2.95c-.97.55-2.39.83-4.23.83h-1.73v1.26c0,.98.58,1.47,1.73,1.47v.21h-6.92v-.21c1.15,0,1.73-.49,1.73-1.47v-7.75c-.04-.86-.62-1.29-1.73-1.29v-.2ZM129.97,18.43v7.56h1.73c1.73,0,2.6-1.19,2.6-3.57,0-2.66-.87-3.99-2.6-3.99h-1.73Z" fill="url(#Degradado_sin_nombre_59-16)" stroke="#422918" stroke-linecap="round" stroke-linejoin="round" stroke-width=".16"/><path d="M138.18,18.22h11.25v3.15h-.22c-.13-1.96-1.03-2.94-2.71-2.94h-3.13v4.94h1.06c1.01,0,1.51-.56,1.51-1.68h.22v3.57h-.22c0-1.12-.5-1.68-1.51-1.68h-1.06v5.36h3.35c1.67,0,2.57-.98,2.71-2.94h.22v3.15h-11.47v-.21c1.11,0,1.69-.43,1.73-1.28v-7.76c0-.98-.58-1.47-1.73-1.47v-.21Z" fill="url(#Degradado_sin_nombre_59-17)" stroke="#422918" stroke-linecap="round" stroke-linejoin="round" stroke-width=".16"/><path d="M153.66,18.43c-1.67,0-2.57.98-2.71,2.94h-.22v-3.15h11.25v3.15h-.22c-.13-1.96-1.02-2.94-2.7-2.94h-.98v9.03c0,.98.58,1.47,1.73,1.47v.21h-6.92v-.21c1.15,0,1.73-.49,1.73-1.47v-9.03h-.97Z" fill="url(#Degradado_sin_nombre_59-18)" stroke="#422918" stroke-linecap="round" stroke-linejoin="round" stroke-width=".16"/><path d="M167.91,14.75c.69,0,1.29.09,1.79.28.5.18.98.26,1.43.26s.69-.14.69-.43h.22l.2,3.23h-.22c0-.23-.06-.49-.17-.8-.12-.31-.3-.65-.57-1.02-.27-.37-.69-.68-1.27-.93-.58-.25-1.27-.38-2.06-.38-1.47,0-2.21.5-2.21,1.49,0,.92.43,1.73,1.28,2.44l4.13,3.38c1.46,1.02,2.19,2.17,2.19,3.45,0,1.12-.65,2-1.94,2.67-1.1.57-2.49.86-4.18.86-1.08,0-2.02-.25-2.79-.76-.22-.14-.42-.21-.6-.21-.31,0-.54.17-.69.5-.04.1-.07.22-.07.35h-.22l.07-3.28h.22c0,.17.03.37.11.6.18.58.56,1.13,1.15,1.66.29.26.68.48,1.18.65.5.18,1.05.26,1.65.26.79,0,1.43-.19,1.92-.58.5-.4.75-.88.75-1.46,0-.92-.3-1.62-.91-2.12l-4.13-3.38c-1.28-1.04-1.92-2.21-1.92-3.49,0-.99.52-1.81,1.57-2.43.92-.55,2.06-.83,3.4-.83Z" fill="url(#Degradado_sin_nombre_59-19)" stroke="#422918" stroke-linecap="round" stroke-linejoin="round" stroke-width=".16"/></svg>